PathFileType	4	(X/Y/Z)	Patient4_TMGait_0pt4_01_right_05.trc.trc
DataRate	CameraRate	NumFrames	NumMarkers	Units	OrigDataRate	OrigDataStartFrame	OrigNumFrames
78.651685393258	78.651685393258	5	33	mm	78.651685393258	36	       141
Frame#	Time	Sacral			L.Shoulder			Chest			R.Shoulder			Neck			R.ASIS			L.ASIS			R.Thigh.Superior			R.Thigh.Lateral			R.Thigh.Inferior			R.Patella			L.Thigh.Superior			L.Thigh.Lateral			L.Thigh.Inferior			L.Patella			L.Shank.Superior			L.Shank.Lateral			L.Shank.Inferior			R.Shank.Superior			R.Shank.Lateral			R.Shank.Inferior			R.Heel			R.Midfoot.Superior			R.Midfoot.Lateral			R.Toe			L.Heel			L.Midfoot.Lateral			L.Midfoot.Superior			L.Toe			L.Elbow			L.Wrist			R.Elbow			R.Wrist			
		X1	Y1	Z1	X2	Y2	Z2	X3	Y3	Z3	X4	Y4	Z4	X5	Y5	Z5	X6	Y6	Z6	X7	Y7	Z7	X8	Y8	Z8	X9	Y9	Z9	X10	Y10	Z10	X11	Y11	Z11	X12	Y12	Z12	X13	Y13	Z13	X14	Y14	Z14	X15	Y15	Z15	X16	Y16	Z16	X17	Y17	Z17	X18	Y18	Z18	X19	Y19	Z19	X20	Y20	Z20	X21	Y21	Z21	X22	Y22	Z22	X23	Y23	Z23	X24	Y24	Z24	X25	Y25	Z25	X26	Y26	Z26	X27	Y27	Z27	X28	Y28	Z28	X29	Y29	Z29	X30	Y30	Z30	X31	Y31	Z31	X32	Y32	Z32	X33	Y33	Z33	

36	6.485000000000	827.260391046424	992.909231569289	495.968059396949	1006.708585223752	1429.829550633831	319.062334464513	1098.663599506989	1367.313805575010	488.393483717778	997.792186332161	1437.395124510098	654.786584442793	979.306553227556	1491.365612291775	473.800405234438	1056.436762949398	942.905981260318	622.897489169347	1050.118171902150	960.446874530795	348.576210119893	1115.790719715453	747.726141246882	592.712033103117	1045.355304853403	632.997792152878	654.375828326507	1128.003991246919	587.115776819462	575.215645437843	1135.513491660558	498.236925426075	582.874352654793	1102.947094191083	744.581148943630	375.090642250738	1028.686459172814	626.072535171940	301.713241836086	1118.039925301287	547.391985405339	362.075446398559	1115.475243406786	461.997970647345	356.831064051433	1051.382284660733	399.612607358200	350.394744196517	914.583465006906	346.275304514233	301.365829027341	910.209207950629	218.385485421512	359.464914353053	1108.891337411429	407.220681848155	590.769374102987	1039.344692489629	302.900258509082	654.400941032322	1083.820341294155	208.330085183216	592.099395980638	952.292909908378	42.187864236496	563.422739080213	1122.859726866044	98.499892498710	599.459515212142	1035.856263063269	37.086874857910	638.289445397688	1243.531678743408	48.114639615407	626.145174363159	725.300622139532	133.379863819461	397.692530983680	788.678796317157	98.047860759584	317.222695477763	890.492703037539	121.877342046025	339.052291210487	983.739736580152	33.448746230415	309.936005475659	1015.090876127153	1082.034176396117	191.642516487764	1189.947061331775	887.360239425435	215.137161660981	944.249551023284	1096.305822991453	780.660064408773	1074.327494329004	871.384302429516	803.704247684500	
37	6.497714285714	826.961762492270	993.081459690349	499.774888808548	1003.883101600287	1430.434125591438	321.819928996913	1098.024740885107	1367.825060787302	490.036105794711	998.930730766958	1437.547321620882	657.659732447327	978.417865763144	1491.677452846171	477.023860625199	1057.309629677729	943.334996894734	624.574897063695	1048.576596149769	960.843503346059	350.335809846168	1115.132330302386	747.206048275677	595.156370738149	1043.471833609177	632.790830585114	656.153167377898	1125.899513969683	586.508361109059	577.045213789802	1132.634610344326	497.650239061652	584.219496256132	1106.652152170398	747.987281338470	376.422641683853	1036.339996354190	627.819371103519	302.427510090063	1128.407474929748	551.221036325424	361.929704062618	1127.312007861276	464.984156587765	356.526356935146	1061.985401725074	402.179453781721	350.420736719226	923.426517215195	352.676804835537	301.789519587606	915.989086190430	224.704801674367	359.619970150642	1105.636314825686	406.754269985125	591.857379231586	1035.676464430729	302.542077282836	654.990426814242	1079.627291798413	208.002956567511	592.516678947397	947.295105693011	42.197766641365	563.543545873317	1117.925912044276	98.458180032483	599.753920408282	1030.854007447372	37.056277703416	638.449347938100	1238.560482488237	47.955888754054	626.403327523512	728.246488803655	146.436033403518	398.094735791846	790.185574844930	108.510912913147	317.431494583313	893.362778982644	127.620591100975	339.133417610950	982.239589351917	33.574188599986	309.710400875757	1010.426935331524	1082.259564147486	194.984455145516	1185.638962357969	887.670879740532	216.809258006877	951.756899781846	1095.898839385413	785.239328490440	1088.068292111140	874.673449703305	806.115229600620	
38	6.510428571429	826.497339963553	993.343228860787	503.395895604386	1001.101082304998	1430.995558046736	324.389149626348	1097.418068989891	1368.296856735380	491.480479824000	1000.161504806278	1437.751039019785	660.325386242936	977.641989276337	1492.024118612858	480.009961641583	1057.953132626796	943.754829070991	626.131103952229	1046.895009154836	961.256681033175	352.005448102737	1114.240531710955	746.688781253119	597.404812988023	1041.366747728804	632.583163791825	657.741297481725	1123.520387278183	585.911503136158	578.642649379894	1129.444080823583	497.087837731429	585.340575399614	1109.981408005604	751.626365750917	377.607287425047	1043.375783893392	629.973557139343	303.060057410473	1137.994924225382	555.536001089082	361.747783572969	1138.507877166187	468.577437349865	356.285378221321	1072.242234946147	405.240369476758	350.439341032409	932.219760028353	358.927093402945	302.281138515164	922.342540913863	230.843182674420	359.821825115785	1102.139907162240	406.323157796858	592.751611768703	1031.821892509684	302.207448174500	655.427607928108	1075.265532307693	207.687125110096	592.785761057722	942.187008165154	42.220518900338	563.607572534582	1112.907995257857	98.357807852804	599.953476827270	1025.742803825799	37.030078217785	638.553242595852	1233.495809397242	47.656874854043	626.588825340195	732.449340530581	158.074168989861	398.704572397699	793.054209494737	118.232185482531	317.707573118713	897.316844770143	133.331543681698	339.224537401310	982.467730729642	34.209505145197	309.136399099269	1005.380580075355	1082.384891362590	198.227482927922	1180.741694344659	887.677340205897	218.278181488563	959.536887072425	1095.647380065860	789.604902146305	1102.029199109855	878.311134369524	808.146604113058	
39	6.523142857143	825.890124490607	993.704980376240	506.822423994338	998.411679355622	1431.533719321377	326.767199098042	1096.856457633837	1368.749685661799	492.739599379156	1001.472413214212	1438.033435082508	662.772828581357	976.990132756359	1492.425005382615	482.741148516421	1058.376167151397	944.158265873862	627.578526114285	1045.109267474207	961.729727249657	353.597727448816	1113.127334342839	746.196354225186	599.342148860254	1039.120892024801	632.407919531358	659.134168574218	1120.887620243143	585.339101288502	579.959083961896	1125.973258000627	496.565685520567	586.220684196195	1112.874824269660	755.449114260915	378.689926482730	1049.671055315886	632.500861613569	303.654332270496	1146.661213682374	560.255691243890	361.571073143472	1148.894476170583	472.705959976173	356.094811027521	1082.019635986831	408.727157390286	350.429366054656	940.847251679101	364.779150590733	302.827716685708	929.334404084998	236.505455738119	360.005883345526	1098.436462378036	405.939782652417	593.448318614909	1027.828451367007	301.914726999303	655.744110486865	1070.775131323417	207.396017761483	592.921866546014	937.013348550215	42.257039577054	563.633839628440	1107.842856771134	98.220974225716	600.073924584241	1020.566848104077	37.015557976031	638.617412791912	1228.378986039805	47.250894153352	626.715914109067	738.034559603972	167.663568157417	399.460099304382	797.481579453412	126.645806050345	317.989787590190	902.554888572535	138.677898061334	339.227384316950	984.841517916245	35.372117639647	308.140064518820	1000.009407183215	1082.445044686309	201.368345446040	1175.254921555058	887.363427672394	219.521805269934	967.534778240870	1095.575164586596	793.692590229192	1116.163231818023	882.339700939830	809.740715680353	
40	6.535857142857	825.164411134984	994.180774991879	510.059418867317	995.858163200152	1432.072148292232	328.958833742233	1096.351302178489	1369.205667073403	493.830354801669	1002.856475115751	1438.422947081206	664.996965078950	976.468802016460	1492.898577965516	485.211050922446	1058.588548661809	944.539872737631	628.928114679271	1043.247190448234	962.309667950963	355.121456818557	1111.798304598665	745.743283966378	600.901685422286	1036.769140975249	632.292675864990	660.335748671641	1118.002867533976	584.801979073275	580.979507770225	1122.233432333091	496.099332138118	586.861720623736	1115.288513953088	759.404164466232	379.721830352716	1055.155692399329	635.352447900842	304.244214734239	1154.320684272665	565.280646291459	361.432691129968	1158.349345302974	477.283415530478	355.941006814628	1091.235665100339	412.551824452425	350.371338440303	949.251696341375	369.985684237963	303.397551431857	937.061876407953	241.414314105994	360.100788558093	1094.538640488529	405.615586094577	593.956872877777	1023.716079236315	301.678266197826	655.971457135735	1066.181650937091	207.143346198146	592.949014018950	931.813174528738	42.305232638346	563.638071913554	1102.759132587878	98.068317836752	600.131648185788	1015.364200627477	37.016632603758	638.655006056636	1223.243177688873	46.778605667144	626.799752916040	745.131700545096	174.688365094791	400.266785530607	803.660126102048	133.256493109246	318.198811930560	909.287082291964	143.329835298458	339.046961335433	989.732650035028	37.002851601450	306.680928561387	994.390138944276	1082.484557899401	204.404148659454	1169.184637469479	886.716644954914	220.522653962186	975.688912992521	1095.706273869494	797.445344435890	1130.419460359503	886.811415859977	810.840630428859	
